<svg width="104" height="70" viewBox="0 0 104 70" fill="none" xmlns="http://www.w3.org/2000/svg">
<g id="Icon/Big/ThreeDrops">
<path id="Combined Shape" fill-rule="evenodd" clip-rule="evenodd" d="M29.7143 2.25181C25.4037 6.20961 1.98095 28.3294 1.98095 41.6218C1.98095 56.227 14.4223 68.108 29.7143 68.108C45.0062 68.108 57.4476 56.227 57.4476 41.6218C57.4476 28.3294 34.0248 6.20961 29.7143 2.25181ZM29.7143 69.9999C13.3298 69.9999 0 57.2695 0 41.6218C0 26.2361 27.8542 1.30776 29.0398 0.253984C29.4201 -0.0846615 30.0085 -0.0846615 30.3888 0.253984C31.5744 1.30776 59.4286 26.2361 59.4286 41.6218C59.4286 57.2695 46.0987 69.9999 29.7143 69.9999ZM51.5048 70C50.5925 70 49.6664 69.9593 48.7542 69.8799C48.2094 69.8316 47.8083 69.3719 47.8588 68.8516C47.9083 68.3314 48.3877 67.9483 48.9355 67.9956C49.7873 68.0703 50.652 68.1081 51.5048 68.1081C66.7967 68.1081 79.2381 56.2262 79.2381 41.6219C79.2381 28.3286 55.8123 6.20687 51.5038 2.2519C50.3588 3.3 47.8618 5.62985 44.8389 8.71266C44.4635 9.09293 43.8365 9.11279 43.4383 8.75617C43.0392 8.39955 43.0184 7.80077 43.3928 7.41956C47.5403 3.19058 50.7159 0.356172 50.8274 0.256578L50.8302 0.254079C51.2106 -0.0845669 51.7989 -0.0845669 52.1793 0.254079C53.3649 1.30785 81.219 26.2362 81.219 41.6219C81.219 57.2696 67.8892 70 51.5048 70ZM71.5352 69.8799C72.4474 69.9593 73.3735 70 74.2857 70C90.6702 70 104 57.2696 104 41.6219C104 26.2362 76.1458 1.30785 74.9602 0.254079C74.5799 -0.0845669 73.9915 -0.0845669 73.6112 0.254079L73.6084 0.256578C73.4968 0.356172 70.3212 3.19058 66.1737 7.41956C65.7993 7.80077 65.8201 8.39955 66.2193 8.75617C66.6184 9.11279 67.2434 9.09293 67.6198 8.71266C70.6427 5.62985 73.1397 3.3 74.2847 2.2519C78.5933 6.20687 102.019 28.3286 102.019 41.6219C102.019 56.2262 89.5777 68.1081 74.2857 68.1081C73.4329 68.1081 72.5682 68.0703 71.7164 67.9956C71.1657 67.9483 70.6893 68.3314 70.6398 68.8516C70.5893 69.3719 70.9904 69.8316 71.5352 69.8799Z" fill="#6E6E6E"/>
</g>
</svg>
