<svg width="70" height="71" viewBox="0 0 70 71" fill="none" xmlns="http://www.w3.org/2000/svg">
<g id="Icon/Big/Toxic">
<path id="Combined Shape" fill-rule="evenodd" clip-rule="evenodd" d="M28.6021 2C13.9341 2 2.00012 13.934 2.00012 28.603V31.404C2.00012 42.241 8.52512 51.909 18.6231 56.035C18.9991 56.188 19.2451 56.555 19.2451 56.961V63.709C19.2451 66.615 21.6091 68.98 24.5161 68.98H26.6514V62.1665C26.6514 61.6135 27.0994 61.1665 27.6514 61.1665C28.2034 61.1665 28.6514 61.6135 28.6514 62.1665V68.98H39.1929V62.1665C39.1929 61.6135 39.6409 61.1665 40.1929 61.1665C40.7449 61.1665 41.1929 61.6135 41.1929 62.1665V68.98H44.8961C47.8021 68.98 50.1671 66.615 50.1671 63.709V56.961C50.1671 56.555 50.4131 56.188 50.7891 56.035C60.8871 51.909 67.4121 42.241 67.4121 31.404V28.603C67.4121 13.934 55.4781 2 40.8101 2H28.6021ZM40.2247 70.98H44.8961C48.9051 70.98 52.1671 67.719 52.1671 63.709V57.624C62.6661 53.052 69.4121 42.833 69.4121 31.404V28.603C69.4121 12.831 56.5811 0 40.8101 0H28.6021C12.8311 0 0.00012207 12.831 0.00012207 28.603V31.404C0.00012207 42.833 6.74612 53.052 17.2451 57.624V63.709C17.2451 67.719 20.5061 70.98 24.5161 70.98H27.6196C27.6302 70.9803 27.6408 70.9805 27.6514 70.9805L27.6612 70.9805L27.6832 70.98H40.1611C40.1717 70.9803 40.1823 70.9805 40.1929 70.9805C40.2036 70.9805 40.2142 70.9803 40.2247 70.98ZM21.3804 30.2188C17.6094 30.2188 14.5414 33.2868 14.5414 37.0578C14.5414 40.8278 17.6094 43.8968 21.3804 43.8968C25.1514 43.8968 28.2184 40.8278 28.2184 37.0578C28.2184 33.2868 25.1514 30.2188 21.3804 30.2188ZM21.3804 45.8968C16.5064 45.8968 12.5414 41.9318 12.5414 37.0578C12.5414 32.1838 16.5064 28.2188 21.3804 28.2188C26.2544 28.2188 30.2184 32.1838 30.2184 37.0578C30.2184 41.9318 26.2544 45.8968 21.3804 45.8968ZM41.1927 37.0578C41.1927 33.2868 44.2607 30.2188 48.0317 30.2188C51.8027 30.2188 54.8697 33.2868 54.8697 37.0578C54.8697 40.8278 51.8027 43.8968 48.0317 43.8968C44.2607 43.8968 41.1927 40.8278 41.1927 37.0578ZM39.1927 37.0578C39.1927 41.9318 43.1577 45.8968 48.0317 45.8968C52.9057 45.8968 56.8697 41.9318 56.8697 37.0578C56.8697 32.1838 52.9057 28.2188 48.0317 28.2188C43.1577 28.2188 39.1927 32.1838 39.1927 37.0578Z" fill="#6E6E6E"/>
</g>
</svg>
