<svg width="28" height="28" viewBox="0 0 28 28" fill="none" xmlns="http://www.w3.org/2000/svg">
<path fill-rule="evenodd" clip-rule="evenodd" d="M13.6456 4.96203H14.3544V0H13.6456V4.96203ZM14 7.08861C10.3844 7.08861 7.44303 10.03 7.44303 13.6456C7.44303 17.2611 10.3844 20.2025 14 20.2025C17.6155 20.2025 20.557 17.2611 20.557 13.6456C20.557 10.03 17.6155 7.08861 14 7.08861ZM14 20.9114C9.99352 20.9114 6.73417 17.6521 6.73417 13.6456C6.73417 9.63909 9.99352 6.37975 14 6.37975C18.0065 6.37975 21.2658 9.63909 21.2658 13.6456C21.2658 17.6521 18.0065 20.9114 14 20.9114ZM14.3544 28H13.6456V23.038H14.3544V28ZM0 14.3544H4.96203V13.6456H0V14.3544ZM28 14.3544H23.038V13.6456H28V14.3544ZM7.71302 7.50535L4.20451 3.99684L4.70568 3.49568L8.21419 7.00418L7.71302 7.50535ZM20.4948 20.2871L24.0033 23.7956L24.5045 23.2945L20.996 19.786L20.4948 20.2871ZM4.35111 23.7956L3.84995 23.2945L7.35845 19.786L7.85962 20.2871L4.35111 23.7956ZM20.1403 7.00418L20.6414 7.50535L24.1499 3.99684L23.6488 3.49568L20.1403 7.00418Z" fill="#6E6E6E"/>
</svg>
