<svg width="69" height="68" viewBox="0 0 69 68" fill="none" xmlns="http://www.w3.org/2000/svg">
<g id="Icon/Big/LowSun">
<g id="Group 12">
<path id="Combined Shape" fill-rule="evenodd" clip-rule="evenodd" d="M33.6519 17.538H35.3481V1H33.6519V17.538ZM34.5 22.6266C28.4208 22.6266 23.4747 27.5727 23.4747 33.6519C23.4747 39.7311 28.4208 44.6772 34.5 44.6772C40.5792 44.6772 45.5253 39.7311 45.5253 33.6519C45.5253 27.5727 40.5792 22.6266 34.5 22.6266ZM34.5 46.3734C27.4854 46.3734 21.7785 40.6665 21.7785 33.6519C21.7785 26.6373 27.4854 20.9304 34.5 20.9304C41.5146 20.9304 47.2215 26.6373 47.2215 33.6519C47.2215 40.6665 41.5146 46.3734 34.5 46.3734ZM35.3481 49.7658V68H33.6519V49.7658H35.3481ZM1 35.3481H17.538V33.6519H1V35.3481ZM68 35.3481H50.6139V33.6519H68V35.3481ZM22.451 21.954L11.0602 10.5632L12.2594 9.36397L23.6502 20.7548L22.451 21.954ZM46.6216 46.1247L58.4365 57.9396L59.6357 56.7404L47.8208 44.9255L46.6216 46.1247ZM11.4116 57.9396L10.2124 56.7404L21.1792 45.7736L22.3784 46.9728L11.4116 57.9396ZM45.7738 21.1789L46.973 22.3781L58.7879 10.5632L57.5887 9.36397L45.7738 21.1789Z" fill="#6E6E6E"/>
</g>
</g>
</svg>
