<svg width="69" height="68" viewBox="0 0 69 68" fill="none" xmlns="http://www.w3.org/2000/svg">
<g id="Icon/Big/NoSun">
<path id="Combined Shape" fill-rule="evenodd" clip-rule="evenodd" d="M57.4277 50.1788L55.7817 49.0438C58.7977 44.6678 60.3917 39.5328 60.3917 34.1968C60.3917 19.7518 48.6407 7.99976 34.1957 7.99976C29.3267 7.99976 24.5747 9.34476 20.4537 11.8898L19.4027 10.1878C23.8397 7.44876 28.9557 5.99976 34.1957 5.99976C49.7427 5.99976 62.3917 18.6488 62.3917 34.1968C62.3917 39.9408 60.6757 45.4678 57.4277 50.1788ZM34.1958 62.3922C18.6488 62.3922 5.99982 49.7442 5.99982 34.1962C5.99982 28.6172 7.62682 23.2222 10.7048 18.5962L12.3698 19.7042C9.51082 24.0002 7.99982 29.0122 7.99982 34.1962C7.99982 48.6412 19.7518 60.3922 34.1958 60.3922C39.6668 60.3922 44.9058 58.7242 49.3498 55.5672L50.5078 57.1982C45.7248 60.5962 40.0838 62.3922 34.1958 62.3922ZM59.7959 61.2105C59.9909 61.4055 60.2469 61.5035 60.5029 61.5035C60.7589 61.5035 61.0149 61.4055 61.2099 61.2105C61.6009 60.8195 61.6009 60.1875 61.2099 59.7965L8.59592 7.18246C8.20492 6.79146 7.57192 6.79146 7.18192 7.18246C6.79092 7.57246 6.79092 8.20546 7.18192 8.59646L59.7959 61.2105Z" fill="#6E6E6E"/>
</g>
</svg>
