<svg width="213" height="50" viewBox="0 0 213 50" fill="none" xmlns="http://www.w3.org/2000/svg">
<rect x="0.5" y="0.5" width="212" height="49" rx="24.5" stroke="#15573F"/>
<path d="M78.212 23.084C78.9907 23.084 79.6947 23.2653 80.324 23.628C80.9534 23.98 81.444 24.4813 81.796 25.132C82.1587 25.772 82.34 26.5027 82.34 27.324C82.34 28.1453 82.1587 28.876 81.796 29.516C81.444 30.156 80.9534 30.6573 80.324 31.02C79.6947 31.3827 78.9907 31.564 78.212 31.564C77.4654 31.564 76.788 31.388 76.18 31.036C75.5827 30.6733 75.1187 30.172 74.788 29.532V31.5H74.02V19.628H74.82V25.052C75.1507 24.4333 75.6147 23.9533 76.212 23.612C76.8094 23.26 77.476 23.084 78.212 23.084ZM78.164 30.844C78.804 30.844 79.38 30.6947 79.892 30.396C80.404 30.0973 80.804 29.6813 81.092 29.148C81.3907 28.6147 81.54 28.0067 81.54 27.324C81.54 26.6413 81.3907 26.0333 81.092 25.5C80.804 24.9667 80.404 24.5507 79.892 24.252C79.38 23.9533 78.804 23.804 78.164 23.804C77.524 23.804 76.948 23.9533 76.436 24.252C75.9347 24.5507 75.5347 24.9667 75.236 25.5C74.948 26.0333 74.804 26.6413 74.804 27.324C74.804 28.0067 74.948 28.6147 75.236 29.148C75.5347 29.6813 75.9347 30.0973 76.436 30.396C76.948 30.6947 77.524 30.844 78.164 30.844ZM92.1289 23.148V31.5H91.3609V29.708C91.0836 30.2947 90.6729 30.7533 90.1289 31.084C89.5849 31.404 88.9449 31.564 88.2089 31.564C87.1209 31.564 86.2676 31.26 85.6489 30.652C85.0302 30.044 84.7209 29.1693 84.7209 28.028V23.148H85.5209V27.964C85.5209 28.9027 85.7609 29.6173 86.2409 30.108C86.7209 30.5987 87.3982 30.844 88.2729 30.844C89.2116 30.844 89.9529 30.5507 90.4969 29.964C91.0516 29.3773 91.3289 28.588 91.3289 27.596V23.148H92.1289ZM102.224 23.148L97.936 32.636C97.616 33.372 97.2427 33.8947 96.816 34.204C96.4 34.5133 95.904 34.668 95.328 34.668C94.944 34.668 94.5814 34.604 94.24 34.476C93.9094 34.348 93.6267 34.1613 93.392 33.916L93.792 33.308C94.2187 33.7453 94.736 33.964 95.344 33.964C95.7494 33.964 96.096 33.852 96.384 33.628C96.672 33.404 96.9387 33.02 97.184 32.476L97.632 31.468L93.872 23.148H94.72L98.064 30.62L101.408 23.148H102.224ZM112.163 23.084C113.208 23.084 114.035 23.388 114.643 23.996C115.251 24.604 115.555 25.4787 115.555 26.62V31.5H114.755V26.684C114.755 25.7453 114.515 25.0307 114.035 24.54C113.565 24.0493 112.904 23.804 112.051 23.804C111.069 23.804 110.296 24.0973 109.731 24.684C109.165 25.2707 108.883 26.06 108.883 27.052V31.5H108.083V23.148H108.851V24.956C109.139 24.3693 109.565 23.9107 110.131 23.58C110.707 23.2493 111.384 23.084 112.163 23.084ZM122.128 31.564C121.338 31.564 120.624 31.3827 119.984 31.02C119.354 30.6573 118.858 30.156 118.496 29.516C118.133 28.8653 117.952 28.1347 117.952 27.324C117.952 26.5133 118.133 25.788 118.496 25.148C118.858 24.4973 119.354 23.9907 119.984 23.628C120.624 23.2653 121.338 23.084 122.128 23.084C122.917 23.084 123.626 23.2653 124.256 23.628C124.896 23.9907 125.397 24.4973 125.76 25.148C126.122 25.788 126.304 26.5133 126.304 27.324C126.304 28.1347 126.122 28.8653 125.76 29.516C125.397 30.156 124.896 30.6573 124.256 31.02C123.626 31.3827 122.917 31.564 122.128 31.564ZM122.128 30.844C122.768 30.844 123.338 30.6947 123.84 30.396C124.352 30.0973 124.752 29.6813 125.04 29.148C125.338 28.6147 125.488 28.0067 125.488 27.324C125.488 26.6413 125.338 26.0333 125.04 25.5C124.752 24.9667 124.352 24.5507 123.84 24.252C123.338 23.9533 122.768 23.804 122.128 23.804C121.488 23.804 120.912 23.9533 120.4 24.252C119.898 24.5507 119.498 24.9667 119.2 25.5C118.912 26.0333 118.768 26.6413 118.768 27.324C118.768 28.0067 118.912 28.6147 119.2 29.148C119.498 29.6813 119.898 30.0973 120.4 30.396C120.912 30.6947 121.488 30.844 122.128 30.844ZM140.487 23.148L137.319 31.5H136.567L133.751 24.252L130.919 31.5H130.183L127.015 23.148H127.783L130.567 30.604L133.415 23.148H134.103L136.935 30.588L139.751 23.148H140.487Z" fill="#15573F"/>
</svg>
