<svg width="126" height="50" viewBox="0 0 126 50" fill="none" xmlns="http://www.w3.org/2000/svg">
<rect x="0.5" y="0.5" width="125" height="49" rx="24.5" stroke="#15573F"/>
<path d="M26.9187 33.4677L35.2779 24.8768L26.9187 16.2859" stroke="#15573F" stroke-width="0.8"/>
<path d="M35.2781 24.8769H14.0001" stroke="#15573F" stroke-width="0.8"/>
<path d="M61.208 20.752C60.1627 20.752 59.64 21.312 59.64 22.432V23.648H62.312V24.336H59.656V32H58.856V24.336H57.32V23.648H58.856V22.368C58.856 21.664 59.0587 21.104 59.464 20.688C59.8693 20.272 60.44 20.064 61.176 20.064C61.496 20.064 61.8 20.112 62.088 20.208C62.3867 20.2933 62.632 20.4267 62.824 20.608L62.504 21.216C62.1627 20.9067 61.7307 20.752 61.208 20.752ZM65.224 23.648H66.024V32H65.224V23.648ZM65.624 21.616C65.4427 21.616 65.288 21.5573 65.16 21.44C65.032 21.312 64.968 21.1573 64.968 20.976C64.968 20.7947 65.032 20.64 65.16 20.512C65.288 20.384 65.4427 20.32 65.624 20.32C65.8053 20.32 65.96 20.384 66.088 20.512C66.216 20.6293 66.28 20.7787 66.28 20.96C66.28 21.1413 66.216 21.296 66.088 21.424C65.96 21.552 65.8053 21.616 65.624 21.616ZM73.4791 23.584C74.5245 23.584 75.3511 23.888 75.9591 24.496C76.5671 25.104 76.8711 25.9787 76.8711 27.12V32H76.0711V27.184C76.0711 26.2453 75.8311 25.5307 75.3511 25.04C74.8818 24.5493 74.2205 24.304 73.3671 24.304C72.3858 24.304 71.6125 24.5973 71.0471 25.184C70.4818 25.7707 70.1991 26.56 70.1991 27.552V32H69.3991V23.648H70.1671V25.456C70.4551 24.8693 70.8818 24.4107 71.4471 24.08C72.0231 23.7493 72.7005 23.584 73.4791 23.584ZM80.1648 23.648H80.9648V32H80.1648V23.648ZM80.5648 21.616C80.3834 21.616 80.2288 21.5573 80.1008 21.44C79.9728 21.312 79.9088 21.1573 79.9088 20.976C79.9088 20.7947 79.9728 20.64 80.1008 20.512C80.2288 20.384 80.3834 20.32 80.5648 20.32C80.7461 20.32 80.9008 20.384 81.0288 20.512C81.1568 20.6293 81.2208 20.7787 81.2208 20.96C81.2208 21.1413 81.1568 21.296 81.0288 21.424C80.9008 21.552 80.7461 21.616 80.5648 21.616ZM86.4486 32.064C85.7766 32.064 85.1366 31.9627 84.5286 31.76C83.9206 31.5573 83.446 31.3013 83.1046 30.992L83.4726 30.352C83.814 30.64 84.2513 30.88 84.7846 31.072C85.3286 31.264 85.894 31.36 86.4806 31.36C87.3233 31.36 87.942 31.2213 88.3366 30.944C88.742 30.6667 88.9446 30.2827 88.9446 29.792C88.9446 29.44 88.8326 29.1627 88.6086 28.96C88.3953 28.7573 88.1286 28.608 87.8086 28.512C87.4886 28.416 87.046 28.3147 86.4806 28.208C85.8193 28.0907 85.286 27.9627 84.8806 27.824C84.4753 27.6853 84.1286 27.4613 83.8406 27.152C83.5526 26.8427 83.4086 26.416 83.4086 25.872C83.4086 25.2107 83.6806 24.6667 84.2246 24.24C84.7793 23.8027 85.5633 23.584 86.5766 23.584C87.11 23.584 87.638 23.6587 88.1606 23.808C88.6833 23.9573 89.11 24.1547 89.4406 24.4L89.0726 25.04C88.7313 24.7947 88.342 24.608 87.9046 24.48C87.4673 24.352 87.0193 24.288 86.5606 24.288C85.782 24.288 85.1953 24.432 84.8006 24.72C84.406 25.008 84.2086 25.3867 84.2086 25.856C84.2086 26.2293 84.3206 26.5227 84.5446 26.736C84.7686 26.9387 85.0406 27.0933 85.3606 27.2C85.6913 27.296 86.15 27.4027 86.7366 27.52C87.3873 27.6373 87.91 27.7653 88.3046 27.904C88.71 28.032 89.0513 28.2453 89.3286 28.544C89.606 28.8427 89.7446 29.2533 89.7446 29.776C89.7446 30.4693 89.4566 31.024 88.8806 31.44C88.3046 31.856 87.494 32.064 86.4486 32.064ZM96.0573 23.584C97.1026 23.584 97.9293 23.888 98.5373 24.496C99.1453 25.104 99.4493 25.9787 99.4493 27.12V32H98.6493V27.184C98.6493 26.2453 98.4093 25.5307 97.9293 25.04C97.4599 24.5493 96.7986 24.304 95.9453 24.304C94.9639 24.304 94.1906 24.5973 93.6253 25.184C93.0599 25.7707 92.7773 26.56 92.7773 27.552V32H91.9773V20.128H92.7773V25.392C93.0653 24.816 93.4919 24.3733 94.0573 24.064C94.6226 23.744 95.2893 23.584 96.0573 23.584Z" fill="#15573F"/>
</svg>
