<svg width="146" height="50" viewBox="0 0 146 50" fill="none" xmlns="http://www.w3.org/2000/svg">
<rect x="0.5" y="0.5" width="145" height="49" rx="24.5" stroke="#15573F"/>
<path d="M27.0813 33.4678L18.7221 24.8769L27.0813 16.286" stroke="#15573F" stroke-width="0.8"/>
<path d="M18.7218 24.8769H39.9999" stroke="#15573F" stroke-width="0.8"/>
<path d="M66.776 23.584C67.8213 23.584 68.648 23.888 69.256 24.496C69.864 25.104 70.168 25.9787 70.168 27.12V32H69.368V27.184C69.368 26.2453 69.128 25.5307 68.648 25.04C68.1787 24.5493 67.5173 24.304 66.664 24.304C65.6827 24.304 64.9093 24.5973 64.344 25.184C63.7787 25.7707 63.496 26.56 63.496 27.552V32H62.696V20.128H63.496V25.392C63.784 24.816 64.2107 24.3733 64.776 24.064C65.3413 23.744 66.008 23.584 66.776 23.584ZM76.7413 32.064C75.9519 32.064 75.2373 31.8827 74.5973 31.52C73.9679 31.1573 73.4719 30.656 73.1093 30.016C72.7466 29.3653 72.5653 28.6347 72.5653 27.824C72.5653 27.0133 72.7466 26.288 73.1093 25.648C73.4719 24.9973 73.9679 24.4907 74.5973 24.128C75.2373 23.7653 75.9519 23.584 76.7413 23.584C77.5306 23.584 78.2399 23.7653 78.8693 24.128C79.5093 24.4907 80.0106 24.9973 80.3733 25.648C80.7359 26.288 80.9173 27.0133 80.9173 27.824C80.9173 28.6347 80.7359 29.3653 80.3733 30.016C80.0106 30.656 79.5093 31.1573 78.8693 31.52C78.2399 31.8827 77.5306 32.064 76.7413 32.064ZM76.7413 31.344C77.3813 31.344 77.9519 31.1947 78.4533 30.896C78.9653 30.5973 79.3653 30.1813 79.6533 29.648C79.9519 29.1147 80.1013 28.5067 80.1013 27.824C80.1013 27.1413 79.9519 26.5333 79.6533 26C79.3653 25.4667 78.9653 25.0507 78.4533 24.752C77.9519 24.4533 77.3813 24.304 76.7413 24.304C76.1013 24.304 75.5253 24.4533 75.0133 24.752C74.5119 25.0507 74.1119 25.4667 73.8133 26C73.5253 26.5333 73.3813 27.1413 73.3813 27.824C73.3813 28.5067 73.5253 29.1147 73.8133 29.648C74.1119 30.1813 74.5119 30.5973 75.0133 30.896C75.5253 31.1947 76.1013 31.344 76.7413 31.344ZM93.7991 23.584C94.8338 23.584 95.6445 23.888 96.2311 24.496C96.8285 25.104 97.1271 25.9787 97.1271 27.12V32H96.3271V27.184C96.3271 26.2453 96.0978 25.5307 95.6391 25.04C95.1805 24.5493 94.5405 24.304 93.7191 24.304C92.7805 24.304 92.0338 24.5973 91.4791 25.184C90.9351 25.7707 90.6631 26.56 90.6631 27.552V32H89.8631V27.184C89.8631 26.2453 89.6338 25.5307 89.1751 25.04C88.7165 24.5493 88.0765 24.304 87.2551 24.304C86.3165 24.304 85.5698 24.5973 85.0151 25.184C84.4711 25.7707 84.1991 26.56 84.1991 27.552V32H83.3991V23.648H84.1671V25.44C84.4445 24.8533 84.8551 24.4 85.3991 24.08C85.9538 23.7493 86.6098 23.584 87.3671 23.584C88.1245 23.584 88.7645 23.7547 89.2871 24.096C89.8205 24.4373 90.1991 24.9387 90.4231 25.6C90.7005 24.9813 91.1325 24.4907 91.7191 24.128C92.3165 23.7653 93.0098 23.584 93.7991 23.584ZM107.502 28.016H100.318C100.339 28.6667 100.505 29.248 100.814 29.76C101.123 30.2613 101.539 30.6507 102.062 30.928C102.595 31.2053 103.193 31.344 103.854 31.344C104.398 31.344 104.899 31.248 105.358 31.056C105.827 30.8533 106.217 30.56 106.526 30.176L106.99 30.704C106.627 31.1413 106.169 31.4773 105.614 31.712C105.07 31.9467 104.478 32.064 103.838 32.064C103.006 32.064 102.265 31.8827 101.614 31.52C100.963 31.1573 100.451 30.656 100.078 30.016C99.7153 29.376 99.534 28.6453 99.534 27.824C99.534 27.0133 99.7047 26.288 100.046 25.648C100.398 24.9973 100.878 24.4907 101.486 24.128C102.094 23.7653 102.777 23.584 103.534 23.584C104.291 23.584 104.969 23.7653 105.566 24.128C106.174 24.48 106.649 24.976 106.99 25.616C107.342 26.256 107.518 26.9813 107.518 27.792L107.502 28.016ZM103.534 24.288C102.947 24.288 102.419 24.4213 101.95 24.688C101.481 24.944 101.102 25.312 100.814 25.792C100.537 26.2613 100.377 26.7947 100.334 27.392H106.734C106.702 26.7947 106.542 26.2613 106.254 25.792C105.966 25.3227 105.587 24.9547 105.118 24.688C104.649 24.4213 104.121 24.288 103.534 24.288Z" fill="#15573F"/>
</svg>
