<svg width="126" height="50" viewBox="0 0 126 50" fill="none" xmlns="http://www.w3.org/2000/svg">
<rect x="0.5" y="0.5" width="125" height="49" rx="24.5" stroke="#15573F"/>
<path d="M26.9187 33.4678L35.2779 24.8769L26.9187 16.286" stroke="#15573F" stroke-width="0.8"/>
<path d="M35.2781 24.8769H14.0001" stroke="#15573F" stroke-width="0.8"/>
<path d="M62.776 23.584C63.8213 23.584 64.648 23.888 65.256 24.496C65.864 25.104 66.168 25.9787 66.168 27.12V32H65.368V27.184C65.368 26.2453 65.128 25.5307 64.648 25.04C64.1787 24.5493 63.5173 24.304 62.664 24.304C61.6827 24.304 60.9093 24.5973 60.344 25.184C59.7787 25.7707 59.496 26.56 59.496 27.552V32H58.696V23.648H59.464V25.456C59.752 24.8693 60.1787 24.4107 60.744 24.08C61.32 23.7493 61.9973 23.584 62.776 23.584ZM76.5333 28.016H69.3493C69.3706 28.6667 69.5359 29.248 69.8453 29.76C70.1546 30.2613 70.5706 30.6507 71.0933 30.928C71.6266 31.2053 72.2239 31.344 72.8853 31.344C73.4293 31.344 73.9306 31.248 74.3893 31.056C74.8586 30.8533 75.2479 30.56 75.5573 30.176L76.0213 30.704C75.6586 31.1413 75.1999 31.4773 74.6453 31.712C74.1013 31.9467 73.5093 32.064 72.8693 32.064C72.0373 32.064 71.2959 31.8827 70.6453 31.52C69.9946 31.1573 69.4826 30.656 69.1093 30.016C68.7466 29.376 68.5653 28.6453 68.5653 27.824C68.5653 27.0133 68.7359 26.288 69.0773 25.648C69.4293 24.9973 69.9093 24.4907 70.5173 24.128C71.1253 23.7653 71.8079 23.584 72.5653 23.584C73.3226 23.584 73.9999 23.7653 74.5973 24.128C75.2053 24.48 75.6799 24.976 76.0213 25.616C76.3733 26.256 76.5493 26.9813 76.5493 27.792L76.5333 28.016ZM72.5653 24.288C71.9786 24.288 71.4506 24.4213 70.9813 24.688C70.5119 24.944 70.1333 25.312 69.8453 25.792C69.5679 26.2613 69.4079 26.7947 69.3653 27.392H75.7653C75.7333 26.7947 75.5733 26.2613 75.2853 25.792C74.9973 25.3227 74.6186 24.9547 74.1493 24.688C73.6799 24.4213 73.1519 24.288 72.5653 24.288ZM84.1018 32L81.2378 28.272L78.3738 32H77.4618L80.7738 27.696L77.6378 23.648H78.5498L81.2378 27.12L83.9258 23.648H84.8218L81.6858 27.696L85.0458 32H84.1018ZM91.2306 31.472C91.028 31.664 90.772 31.8133 90.4626 31.92C90.164 32.016 89.8493 32.064 89.5186 32.064C88.7933 32.064 88.2333 31.8667 87.8386 31.472C87.444 31.0667 87.2466 30.5067 87.2466 29.792V24.336H85.7106V23.648H87.2466V21.824H88.0466V23.648H90.7026V24.336H88.0466V29.712C88.0466 30.256 88.1746 30.672 88.4306 30.96C88.6973 31.2373 89.0866 31.376 89.5986 31.376C90.1213 31.376 90.5533 31.2213 90.8946 30.912L91.2306 31.472Z" fill="#15573F"/>
</svg>
