<svg width="146" height="50" viewBox="0 0 146 50" fill="none" xmlns="http://www.w3.org/2000/svg">
<rect x="0.5" y="0.5" width="145" height="49" rx="24.5" stroke="#15573F"/>
<path d="M27.0813 33.4678L18.7221 24.8769L27.0813 16.286" stroke="#15573F" stroke-width="0.8"/>
<path d="M18.7218 24.8769H39.9999" stroke="#15573F" stroke-width="0.8"/>
<path d="M60.2386 23.584C61.0173 23.584 61.7213 23.7653 62.3506 24.128C62.98 24.4907 63.4706 24.992 63.8226 25.632C64.1853 26.272 64.3666 27.0027 64.3666 27.824C64.3666 28.6453 64.1853 29.3813 63.8226 30.032C63.4706 30.672 62.98 31.1733 62.3506 31.536C61.7213 31.888 61.0173 32.064 60.2386 32.064C59.5026 32.064 58.836 31.8933 58.2386 31.552C57.6413 31.2 57.1773 30.7147 56.8466 30.096V35.104H56.0466V23.648H56.8146V25.616C57.1453 24.976 57.6093 24.48 58.2066 24.128C58.8146 23.7653 59.492 23.584 60.2386 23.584ZM60.1906 31.344C60.8306 31.344 61.4066 31.1947 61.9186 30.896C62.4306 30.5973 62.8306 30.1813 63.1186 29.648C63.4173 29.1147 63.5666 28.5067 63.5666 27.824C63.5666 27.1413 63.4173 26.5333 63.1186 26C62.8306 25.4667 62.4306 25.0507 61.9186 24.752C61.4066 24.4533 60.8306 24.304 60.1906 24.304C59.5506 24.304 58.9746 24.4533 58.4626 24.752C57.9613 25.0507 57.5613 25.4667 57.2626 26C56.9746 26.5333 56.8306 27.1413 56.8306 27.824C56.8306 28.5067 56.9746 29.1147 57.2626 29.648C57.5613 30.1813 57.9613 30.5973 58.4626 30.896C58.9746 31.1947 59.5506 31.344 60.1906 31.344ZM67.6115 25.472C67.8675 24.864 68.2675 24.4 68.8115 24.08C69.3555 23.7493 70.0169 23.584 70.7955 23.584V24.368L70.6035 24.352C69.6755 24.352 68.9502 24.6453 68.4275 25.232C67.9049 25.808 67.6435 26.6133 67.6435 27.648V32H66.8435V23.648H67.6115V25.472ZM79.9776 28.016H72.7936C72.815 28.6667 72.9803 29.248 73.2896 29.76C73.599 30.2613 74.015 30.6507 74.5376 30.928C75.071 31.2053 75.6683 31.344 76.3296 31.344C76.8736 31.344 77.375 31.248 77.8336 31.056C78.303 30.8533 78.6923 30.56 79.0016 30.176L79.4656 30.704C79.103 31.1413 78.6443 31.4773 78.0896 31.712C77.5456 31.9467 76.9536 32.064 76.3136 32.064C75.4816 32.064 74.7403 31.8827 74.0896 31.52C73.439 31.1573 72.927 30.656 72.5536 30.016C72.191 29.376 72.0096 28.6453 72.0096 27.824C72.0096 27.0133 72.1803 26.288 72.5216 25.648C72.8736 24.9973 73.3536 24.4907 73.9616 24.128C74.5696 23.7653 75.2523 23.584 76.0096 23.584C76.767 23.584 77.4443 23.7653 78.0416 24.128C78.6496 24.48 79.1243 24.976 79.4656 25.616C79.8176 26.256 79.9936 26.9813 79.9936 27.792L79.9776 28.016ZM76.0096 24.288C75.423 24.288 74.895 24.4213 74.4256 24.688C73.9563 24.944 73.5776 25.312 73.2896 25.792C73.0123 26.2613 72.8523 26.7947 72.8096 27.392H79.2096C79.1776 26.7947 79.0176 26.2613 78.7296 25.792C78.4416 25.3227 78.063 24.9547 77.5936 24.688C77.1243 24.4213 76.5963 24.288 76.0096 24.288ZM89.0163 23.648L85.2403 32H84.4243L80.6643 23.648H81.5123L84.8403 31.12L88.2003 23.648H89.0163ZM90.7654 23.648H91.5654V32H90.7654V23.648ZM91.1654 21.616C90.9841 21.616 90.8294 21.5573 90.7014 21.44C90.5734 21.312 90.5094 21.1573 90.5094 20.976C90.5094 20.7947 90.5734 20.64 90.7014 20.512C90.8294 20.384 90.9841 20.32 91.1654 20.32C91.3467 20.32 91.5014 20.384 91.6294 20.512C91.7574 20.6293 91.8214 20.7787 91.8214 20.96C91.8214 21.1413 91.7574 21.296 91.6294 21.424C91.5014 21.552 91.3467 21.616 91.1654 21.616ZM98.2013 32.064C97.4119 32.064 96.6973 31.8827 96.0573 31.52C95.4279 31.1573 94.9319 30.656 94.5693 30.016C94.2066 29.3653 94.0253 28.6347 94.0253 27.824C94.0253 27.0133 94.2066 26.288 94.5693 25.648C94.9319 24.9973 95.4279 24.4907 96.0573 24.128C96.6973 23.7653 97.4119 23.584 98.2013 23.584C98.9906 23.584 99.6999 23.7653 100.329 24.128C100.969 24.4907 101.471 24.9973 101.833 25.648C102.196 26.288 102.377 27.0133 102.377 27.824C102.377 28.6347 102.196 29.3653 101.833 30.016C101.471 30.656 100.969 31.1573 100.329 31.52C99.6999 31.8827 98.9906 32.064 98.2013 32.064ZM98.2013 31.344C98.8413 31.344 99.4119 31.1947 99.9133 30.896C100.425 30.5973 100.825 30.1813 101.113 29.648C101.412 29.1147 101.561 28.5067 101.561 27.824C101.561 27.1413 101.412 26.5333 101.113 26C100.825 25.4667 100.425 25.0507 99.9133 24.752C99.4119 24.4533 98.8413 24.304 98.2013 24.304C97.5613 24.304 96.9853 24.4533 96.4733 24.752C95.9719 25.0507 95.5719 25.4667 95.2733 26C94.9853 26.5333 94.8413 27.1413 94.8413 27.824C94.8413 28.5067 94.9853 29.1147 95.2733 29.648C95.5719 30.1813 95.9719 30.5973 96.4733 30.896C96.9853 31.1947 97.5613 31.344 98.2013 31.344ZM112.171 23.648V32H111.403V30.208C111.126 30.7947 110.715 31.2533 110.171 31.584C109.627 31.904 108.987 32.064 108.251 32.064C107.163 32.064 106.31 31.76 105.691 31.152C105.072 30.544 104.763 29.6693 104.763 28.528V23.648H105.563V28.464C105.563 29.4027 105.803 30.1173 106.283 30.608C106.763 31.0987 107.44 31.344 108.315 31.344C109.254 31.344 109.995 31.0507 110.539 30.464C111.094 29.8773 111.371 29.088 111.371 28.096V23.648H112.171ZM117.674 32.064C117.002 32.064 116.362 31.9627 115.754 31.76C115.146 31.5573 114.672 31.3013 114.33 30.992L114.698 30.352C115.04 30.64 115.477 30.88 116.01 31.072C116.554 31.264 117.12 31.36 117.706 31.36C118.549 31.36 119.168 31.2213 119.562 30.944C119.968 30.6667 120.17 30.2827 120.17 29.792C120.17 29.44 120.058 29.1627 119.834 28.96C119.621 28.7573 119.354 28.608 119.034 28.512C118.714 28.416 118.272 28.3147 117.706 28.208C117.045 28.0907 116.512 27.9627 116.106 27.824C115.701 27.6853 115.354 27.4613 115.066 27.152C114.778 26.8427 114.634 26.416 114.634 25.872C114.634 25.2107 114.906 24.6667 115.45 24.24C116.005 23.8027 116.789 23.584 117.802 23.584C118.336 23.584 118.864 23.6587 119.386 23.808C119.909 23.9573 120.336 24.1547 120.666 24.4L120.298 25.04C119.957 24.7947 119.568 24.608 119.13 24.48C118.693 24.352 118.245 24.288 117.786 24.288C117.008 24.288 116.421 24.432 116.026 24.72C115.632 25.008 115.434 25.3867 115.434 25.856C115.434 26.2293 115.546 26.5227 115.77 26.736C115.994 26.9387 116.266 27.0933 116.586 27.2C116.917 27.296 117.376 27.4027 117.962 27.52C118.613 27.6373 119.136 27.7653 119.53 27.904C119.936 28.032 120.277 28.2453 120.554 28.544C120.832 28.8427 120.97 29.2533 120.97 29.776C120.97 30.4693 120.682 31.024 120.106 31.44C119.53 31.856 118.72 32.064 117.674 32.064Z" fill="#15573F"/>
</svg>
