<svg width="170" height="50" viewBox="0 0 170 50" fill="none" xmlns="http://www.w3.org/2000/svg">
<rect width="170" height="50" rx="25" fill="#15573F"/>
<path d="M33.9187 33.4678L42.2779 24.8769L33.9187 16.286" stroke="white" stroke-width="0.8"/>
<path d="M42.2782 24.8769H21.0001" stroke="white" stroke-width="0.8"/>
<path d="M59.952 32.112C59.2587 32.112 58.5813 32.0213 57.92 31.84C57.2587 31.6587 56.7307 31.4293 56.336 31.152L57.104 29.632C57.488 29.888 57.9467 30.096 58.48 30.256C59.024 30.4053 59.5573 30.48 60.08 30.48C61.2747 30.48 61.872 30.1653 61.872 29.536C61.872 29.2373 61.7173 29.0293 61.408 28.912C61.1093 28.7947 60.624 28.6827 59.952 28.576C59.248 28.4693 58.672 28.3467 58.224 28.208C57.7867 28.0693 57.4027 27.8293 57.072 27.488C56.752 27.136 56.592 26.6507 56.592 26.032C56.592 25.2213 56.928 24.576 57.6 24.096C58.2827 23.6053 59.2 23.36 60.352 23.36C60.9387 23.36 61.5253 23.4293 62.112 23.568C62.6987 23.696 63.1787 23.872 63.552 24.096L62.784 25.616C62.0587 25.1893 61.2427 24.976 60.336 24.976C59.7493 24.976 59.3013 25.0667 58.992 25.248C58.6933 25.4187 58.544 25.648 58.544 25.936C58.544 26.256 58.704 26.4853 59.024 26.624C59.3547 26.752 59.8613 26.8747 60.544 26.992C61.2267 27.0987 61.7867 27.2213 62.224 27.36C62.6613 27.4987 63.0347 27.7333 63.344 28.064C63.664 28.3947 63.824 28.864 63.824 29.472C63.824 30.272 63.4773 30.912 62.784 31.392C62.0907 31.872 61.1467 32.112 59.952 32.112ZM70.6824 31.536C70.4477 31.728 70.1597 31.872 69.8184 31.968C69.4877 32.064 69.1357 32.112 68.7624 32.112C67.8237 32.112 67.0984 31.8667 66.5864 31.376C66.0744 30.8853 65.8184 30.1707 65.8184 29.232V25.12H64.4104V23.52H65.8184V21.568H67.8184V23.52H70.1064V25.12H67.8184V29.184C67.8184 29.6 67.9197 29.92 68.1224 30.144C68.325 30.3573 68.6184 30.464 69.0024 30.464C69.4504 30.464 69.8237 30.3467 70.1224 30.112L70.6824 31.536ZM75.5916 23.36C76.8503 23.36 77.8103 23.664 78.4716 24.272C79.1436 24.8693 79.4796 25.776 79.4796 26.992V32H77.5916V30.96C77.3463 31.3333 76.9943 31.6213 76.5356 31.824C76.0876 32.016 75.5436 32.112 74.9036 32.112C74.2636 32.112 73.7036 32.0053 73.2236 31.792C72.7436 31.568 72.3703 31.264 72.1036 30.88C71.8476 30.4853 71.7196 30.0427 71.7196 29.552C71.7196 28.784 72.0023 28.1707 72.5676 27.712C73.1436 27.2427 74.045 27.008 75.2716 27.008H77.4796V26.88C77.4796 26.2827 77.2983 25.824 76.9356 25.504C76.5836 25.184 76.0556 25.024 75.3516 25.024C74.8716 25.024 74.397 25.0987 73.9276 25.248C73.469 25.3973 73.0796 25.6053 72.7596 25.872L71.9756 24.416C72.4236 24.0747 72.9623 23.8133 73.5916 23.632C74.221 23.4507 74.8876 23.36 75.5916 23.36ZM75.3196 30.656C75.821 30.656 76.2636 30.544 76.6476 30.32C77.0423 30.0853 77.3196 29.7547 77.4796 29.328V28.336H75.4156C74.2636 28.336 73.6876 28.7147 73.6876 29.472C73.6876 29.8347 73.8316 30.1227 74.1196 30.336C74.4076 30.5493 74.8076 30.656 75.3196 30.656ZM83.9504 24.704C84.5264 23.808 85.5397 23.36 86.9904 23.36V25.264C86.8197 25.232 86.665 25.216 86.5264 25.216C85.7477 25.216 85.1397 25.4453 84.7024 25.904C84.265 26.352 84.0464 27.0027 84.0464 27.856V32H82.0464V23.456H83.9504V24.704ZM94.1355 31.536C93.9008 31.728 93.6128 31.872 93.2715 31.968C92.9408 32.064 92.5888 32.112 92.2155 32.112C91.2768 32.112 90.5515 31.8667 90.0395 31.376C89.5275 30.8853 89.2715 30.1707 89.2715 29.232V25.12H87.8635V23.52H89.2715V21.568H91.2715V23.52H93.5595V25.12H91.2715V29.184C91.2715 29.6 91.3728 29.92 91.5755 30.144C91.7782 30.3573 92.0715 30.464 92.4555 30.464C92.9035 30.464 93.2768 30.3467 93.5755 30.112L94.1355 31.536ZM108.555 23.456V35.104H106.555V30.96C105.883 31.728 104.971 32.112 103.819 32.112C102.987 32.112 102.24 31.9307 101.579 31.568C100.928 31.2053 100.416 30.6933 100.043 30.032C99.68 29.3707 99.4986 28.6027 99.4986 27.728C99.4986 26.864 99.6853 26.1013 100.059 25.44C100.432 24.7787 100.944 24.2667 101.595 23.904C102.245 23.5413 102.987 23.36 103.819 23.36C104.405 23.36 104.939 23.4613 105.419 23.664C105.909 23.8667 106.32 24.1707 106.651 24.576V23.456H108.555ZM104.043 30.4C104.779 30.4 105.387 30.1547 105.867 29.664C106.347 29.1733 106.587 28.528 106.587 27.728C106.587 26.928 106.347 26.2827 105.867 25.792C105.387 25.3013 104.779 25.056 104.043 25.056C103.307 25.056 102.699 25.3013 102.219 25.792C101.749 26.2827 101.515 26.928 101.515 27.728C101.515 28.528 101.749 29.1733 102.219 29.664C102.699 30.1547 103.307 30.4 104.043 30.4ZM119.443 23.456V32H117.539V30.912C117.219 31.296 116.819 31.5947 116.339 31.808C115.859 32.0107 115.342 32.112 114.787 32.112C113.646 32.112 112.745 31.7973 112.083 31.168C111.433 30.528 111.107 29.584 111.107 28.336V23.456H113.107V28.064C113.107 28.832 113.278 29.408 113.619 29.792C113.971 30.1653 114.467 30.352 115.107 30.352C115.822 30.352 116.387 30.1333 116.803 29.696C117.23 29.248 117.443 28.608 117.443 27.776V23.456H119.443ZM122.062 23.456H124.062V32H122.062V23.456ZM123.07 22.048C122.707 22.048 122.403 21.936 122.158 21.712C121.913 21.4773 121.79 21.1893 121.79 20.848C121.79 20.5067 121.913 20.224 122.158 20C122.403 19.7653 122.707 19.648 123.07 19.648C123.433 19.648 123.737 19.76 123.982 19.984C124.227 20.1973 124.35 20.4693 124.35 20.8C124.35 21.152 124.227 21.4507 123.982 21.696C123.747 21.9307 123.443 22.048 123.07 22.048ZM133.359 30.4V32H125.983V30.736L130.671 25.056H126.079V23.456H133.231V24.72L128.527 30.4H133.359ZM141.875 30.4V32H134.499V30.736L139.187 25.056H134.595V23.456H141.747V24.72L137.043 30.4H141.875Z" fill="white"/>
</svg>
