<svg width="26" height="209" viewBox="0 0 26 209" fill="none" xmlns="http://www.w3.org/2000/svg">
<path fill-rule="evenodd" clip-rule="evenodd" d="M16.5108 200.891C16.5108 199.392 15.7645 198.025 14.9377 197.237H9.60475C8.77792 197.999 7.97792 199.366 7.97792 200.891C7.97792 203.651 9.84439 205.413 12.2712 205.413C14.6712 205.413 16.5108 203.651 16.5108 200.891ZM5.55109 201.627C5.55109 199.681 6.21817 198.209 7.20475 197.237H5.79134V194.502H18.2444C22.6974 194.502 25.0176 197.315 25.0176 201.154C25.0176 203.861 24.031 205.492 23.5773 206.359L21.0974 205.754C21.6572 204.887 22.5645 203.283 22.5645 201.154C22.5645 199.077 21.498 197.237 18.8048 197.237H17.3109C18.2444 198.236 18.9377 199.761 18.9377 201.627C18.9377 205.57 15.9243 208.199 12.2712 208.199C8.56512 208.199 5.55109 205.57 5.55109 201.627Z" fill="#15573F"/>
<path d="M14.9377 197.237L15.1447 197.019L15.0578 196.937H14.9377V197.237ZM9.60475 197.237V196.937H9.48757L9.40141 197.016L9.60475 197.237ZM7.20475 197.237L7.41537 197.45L7.93635 196.937H7.20475V197.237ZM5.79134 197.237H5.49134V197.537H5.79134V197.237ZM5.79134 194.502V194.202H5.49134V194.502H5.79134ZM23.5773 206.359L23.5062 206.651L23.7343 206.706L23.8432 206.498L23.5773 206.359ZM21.0974 205.754L20.8454 205.592L20.6168 205.946L21.0264 206.046L21.0974 205.754ZM17.3109 197.237V196.937H16.62L17.0916 197.441L17.3109 197.237ZM16.8109 200.891C16.8109 199.298 16.0217 197.856 15.1447 197.019L14.7306 197.454C15.5073 198.194 16.2108 199.486 16.2108 200.891H16.8109ZM14.9377 196.937H9.60475V197.537H14.9377V196.937ZM9.40141 197.016C8.52541 197.824 7.67792 199.266 7.67792 200.891H8.27792C8.27792 199.465 9.03043 198.174 9.8081 197.457L9.40141 197.016ZM7.67792 200.891C7.67792 202.341 8.16931 203.549 9.00028 204.397C9.83092 205.244 10.9835 205.713 12.2712 205.713V205.113C11.1321 205.113 10.138 204.701 9.42874 203.977C8.71977 203.254 8.27792 202.202 8.27792 200.891H7.67792ZM12.2712 205.713C13.5467 205.713 14.6863 205.244 15.5066 204.396C16.327 203.548 16.8109 202.339 16.8109 200.891H16.2108C16.2108 202.203 15.7748 203.256 15.0754 203.979C14.376 204.701 13.3958 205.113 12.2712 205.113V205.713ZM5.85109 201.627C5.85109 199.753 6.49181 198.361 7.41537 197.45L6.99413 197.023C5.94453 198.058 5.25109 199.61 5.25109 201.627H5.85109ZM7.20475 196.937H5.79134V197.537H7.20475V196.937ZM6.09134 197.237V194.502H5.49134V197.237H6.09134ZM5.79134 194.802H18.2444V194.202H5.79134V194.802ZM18.2444 194.802C20.4058 194.802 22.0149 195.483 23.0845 196.597C24.1563 197.712 24.7176 199.294 24.7176 201.154H25.3176C25.3176 199.175 24.7188 197.431 23.5172 196.181C22.3135 194.928 20.5361 194.202 18.2444 194.202V194.802ZM24.7176 201.154C24.7176 203.78 23.7657 205.352 23.3115 206.22L23.8432 206.498C24.2963 205.632 25.3176 203.942 25.3176 201.154H24.7176ZM23.6484 206.068L21.1685 205.463L21.0264 206.046L23.5062 206.651L23.6484 206.068ZM21.3495 205.917C21.9203 205.032 22.8645 203.369 22.8645 201.154H22.2645C22.2645 203.197 21.3941 204.741 20.8454 205.592L21.3495 205.917ZM22.8645 201.154C22.8645 200.068 22.5863 199.013 21.9245 198.224C21.2555 197.425 20.2255 196.937 18.8048 196.937V197.537C20.0773 197.537 20.9272 197.968 21.4647 198.609C22.0095 199.259 22.2645 200.162 22.2645 201.154H22.8645ZM18.8048 196.937H17.3109V197.537H18.8048V196.937ZM17.0916 197.441C17.9727 198.384 18.6377 199.836 18.6377 201.627H19.2377C19.2377 199.686 18.5161 198.087 17.5301 197.032L17.0916 197.441ZM18.6377 201.627C18.6377 205.391 15.7731 207.899 12.2712 207.899V208.499C16.0754 208.499 19.2377 205.75 19.2377 201.627H18.6377ZM12.2712 207.899C8.71465 207.899 5.85109 205.389 5.85109 201.627H5.25109C5.25109 205.752 8.41559 208.499 12.2712 208.499V207.899Z" fill="#15573F"/>
<path fill-rule="evenodd" clip-rule="evenodd" d="M9.49811 186.724C8.53835 186.724 7.92494 186.961 7.92494 187.828C7.92494 188.381 8.16457 188.959 8.37798 189.301L6.21823 189.485C5.95176 189.195 5.55116 188.013 5.55116 186.803C5.55116 185.226 6.32494 184.306 7.95176 184.069C6.4853 183.359 5.55116 182.334 5.55116 180.493C5.55116 179.206 6.03103 178.285 6.51152 177.996L8.96457 178.496C8.51152 178.785 8.11152 179.679 8.11152 180.888C8.11152 182.833 9.92433 183.622 11.7914 183.99H19.7377V186.724H9.49811Z" fill="#15573F"/>
<path fill-rule="evenodd" clip-rule="evenodd" d="M9.49811 186.724C8.53835 186.724 7.92494 186.961 7.92494 187.828C7.92494 188.381 8.16457 188.959 8.37798 189.301L6.21823 189.485C5.95176 189.195 5.55116 188.013 5.55116 186.803C5.55116 185.226 6.32494 184.306 7.95176 184.069C6.4853 183.359 5.55116 182.334 5.55116 180.493C5.55116 179.206 6.03103 178.285 6.51152 177.996L8.96457 178.496C8.51152 178.785 8.11152 179.679 8.11152 180.888C8.11152 182.833 9.92433 183.622 11.7914 183.99H19.7377V186.724H9.49811Z" stroke="#15573F" stroke-width="0.6"/>
<path fill-rule="evenodd" clip-rule="evenodd" d="M10.7783 163.566C9.17835 163.566 7.73811 164.644 7.73811 167.115C7.73811 169.691 9.49786 171.19 11.5247 171.4V163.619C11.3113 163.592 11.0186 163.566 10.7783 163.566ZM18.2174 161.121C19.3912 162.54 20.1113 164.512 20.1113 166.826C20.1113 172.005 16.8582 174.266 12.8046 174.266C8.69847 174.266 5.41798 171.479 5.41798 167.062C5.41798 162.882 8.0314 160.937 11.2314 160.937C12.0582 160.937 13.1784 161.068 13.6851 161.226V171.453C16.1113 171.19 17.7643 169.744 17.7643 166.747C17.7643 164.854 17.0174 163.251 16.218 162.199L18.2174 161.121Z" fill="#15573F"/>
<path d="M11.5247 171.4L11.4938 171.698L11.8247 171.733V171.4H11.5247ZM11.5247 163.619H11.8247V163.353L11.5616 163.321L11.5247 163.619ZM18.2174 161.121L18.4486 160.93L18.2917 160.74L18.075 160.857L18.2174 161.121ZM13.6851 161.226H13.9851V161.005L13.7741 160.939L13.6851 161.226ZM13.6851 171.453H13.3851V171.787L13.7174 171.751L13.6851 171.453ZM16.218 162.199L16.0756 161.935L15.767 162.101L15.9791 162.38L16.218 162.199ZM10.7783 163.266C9.91092 163.266 9.06822 163.559 8.44271 164.205C7.81651 164.851 7.43811 165.82 7.43811 167.115H8.03811C8.03811 165.938 8.37982 165.132 8.87375 164.622C9.36836 164.111 10.0458 163.866 10.7783 163.866V163.266ZM7.43811 167.115C7.43811 169.861 9.33072 171.474 11.4938 171.698L11.5556 171.102C9.66501 170.906 8.03811 169.521 8.03811 167.115H7.43811ZM11.8247 171.4V163.619H11.2247V171.4H11.8247ZM11.5616 163.321C11.3424 163.294 11.0361 163.266 10.7783 163.266V163.866C11.0011 163.866 11.2801 163.891 11.4878 163.916L11.5616 163.321ZM17.9862 161.312C19.1109 162.672 19.8113 164.575 19.8113 166.826H20.4113C20.4113 164.45 19.6714 162.408 18.4486 160.93L17.9862 161.312ZM19.8113 166.826C19.8113 169.35 19.0208 171.122 17.7751 172.267C16.5249 173.415 14.7783 173.966 12.8046 173.966V174.566C14.8845 174.566 16.7913 173.985 18.181 172.709C19.5753 171.428 20.4113 169.481 20.4113 166.826H19.8113ZM12.8046 173.966C10.8192 173.966 9.04849 173.293 7.77656 172.101C6.50701 170.912 5.71798 169.192 5.71798 167.062H5.11798C5.11798 169.349 5.9692 171.231 7.36642 172.539C8.76126 173.846 10.6838 174.566 12.8046 174.566V173.966ZM5.71798 167.062C5.71798 165.037 6.34924 163.59 7.33219 162.649C8.318 161.704 9.69083 161.237 11.2314 161.237V160.637C9.57196 160.637 8.03809 161.142 6.91719 162.215C5.79344 163.292 5.11798 164.907 5.11798 167.062H5.71798ZM11.2314 161.237C12.0431 161.237 13.1296 161.367 13.596 161.512L13.7741 160.939C13.2271 160.769 12.0734 160.637 11.2314 160.637V161.237ZM13.3851 161.226V171.453H13.9851V161.226H13.3851ZM13.7174 171.751C14.9804 171.614 16.0753 171.165 16.854 170.33C17.6344 169.492 18.0643 168.301 18.0643 166.747H17.4643C17.4643 168.189 17.0677 169.22 16.415 169.921C15.7607 170.623 14.8159 171.029 13.6528 171.155L13.7174 171.751ZM18.0643 166.747C18.0643 164.776 17.2874 163.11 16.4568 162.017L15.9791 162.38C16.7474 163.391 17.4643 164.932 17.4643 166.747H18.0643ZM16.3603 162.463L18.3597 161.385L18.075 160.857L16.0756 161.935L16.3603 162.463Z" fill="#15573F"/>
<path fill-rule="evenodd" clip-rule="evenodd" d="M10.7783 145.403C9.17835 145.403 7.73811 146.481 7.73811 148.952C7.73811 151.528 9.49786 153.027 11.5247 153.237V145.456C11.3113 145.429 11.0186 145.403 10.7783 145.403ZM18.2174 142.958C19.3912 144.377 20.1113 146.35 20.1113 148.663C20.1113 153.842 16.8582 156.103 12.8046 156.103C8.69847 156.103 5.41798 153.316 5.41798 148.899C5.41798 144.719 8.0314 142.774 11.2314 142.774C12.0582 142.774 13.1784 142.906 13.6851 143.063V153.29C16.1113 153.027 17.7643 151.581 17.7643 148.584C17.7643 146.691 17.0174 145.088 16.218 144.036L18.2174 142.958Z" fill="#15573F"/>
<path d="M11.5247 153.237L11.4938 153.535L11.8247 153.57V153.237H11.5247ZM11.5247 145.456H11.8247V145.191L11.5616 145.158L11.5247 145.456ZM18.2174 142.958L18.4486 142.767L18.2917 142.577L18.075 142.694L18.2174 142.958ZM13.6851 143.063H13.9851V142.842L13.7741 142.777L13.6851 143.063ZM13.6851 153.29H13.3851V153.624L13.7174 153.588L13.6851 153.29ZM16.218 144.036L16.0756 143.772L15.767 143.938L15.9791 144.217L16.218 144.036ZM10.7783 145.103C9.91092 145.103 9.06822 145.396 8.44271 146.042C7.81651 146.689 7.43811 147.658 7.43811 148.952H8.03811C8.03811 147.775 8.37982 146.969 8.87375 146.459C9.36836 145.949 10.0458 145.703 10.7783 145.703V145.103ZM7.43811 148.952C7.43811 151.698 9.33072 153.312 11.4938 153.535L11.5556 152.939C9.66501 152.743 8.03811 151.358 8.03811 148.952H7.43811ZM11.8247 153.237V145.456H11.2247V153.237H11.8247ZM11.5616 145.158C11.3424 145.131 11.0361 145.103 10.7783 145.103V145.703C11.0011 145.703 11.2801 145.728 11.4878 145.753L11.5616 145.158ZM17.9862 143.149C19.1109 144.509 19.8113 146.412 19.8113 148.663H20.4113C20.4113 146.287 19.6714 144.245 18.4486 142.767L17.9862 143.149ZM19.8113 148.663C19.8113 151.187 19.0208 152.96 17.7751 154.104C16.5249 155.253 14.7783 155.803 12.8046 155.803V156.403C14.8845 156.403 16.7913 155.823 18.181 154.546C19.5753 153.265 20.4113 151.318 20.4113 148.663H19.8113ZM12.8046 155.803C10.8192 155.803 9.04849 155.13 7.77656 153.938C6.50701 152.75 5.71798 151.029 5.71798 148.899H5.11798C5.11798 151.186 5.9692 153.068 7.36642 154.376C8.76126 155.683 10.6838 156.403 12.8046 156.403V155.803ZM5.71798 148.899C5.71798 146.874 6.34924 145.427 7.33219 144.486C8.318 143.542 9.69083 143.074 11.2314 143.074V142.474C9.57196 142.474 8.03809 142.979 6.91719 144.052C5.79344 145.129 5.11798 146.745 5.11798 148.899H5.71798ZM11.2314 143.074C12.0431 143.074 13.1296 143.205 13.596 143.35L13.7741 142.777C13.2271 142.607 12.0734 142.474 11.2314 142.474V143.074ZM13.3851 143.063V153.29H13.9851V143.063H13.3851ZM13.7174 153.588C14.9804 153.451 16.0753 153.003 16.854 152.167C17.6344 151.329 18.0643 150.138 18.0643 148.584H17.4643C17.4643 150.027 17.0677 151.057 16.415 151.758C15.7607 152.46 14.8159 152.866 13.6528 152.992L13.7174 153.588ZM18.0643 148.584C18.0643 146.613 17.2874 144.947 16.4568 143.854L15.9791 144.217C16.7474 145.228 17.4643 146.769 17.4643 148.584H18.0643ZM16.3603 144.3L18.3597 143.222L18.075 142.694L16.0756 143.772L16.3603 144.3Z" fill="#15573F"/>
<path fill-rule="evenodd" clip-rule="evenodd" d="M5.79128 134.233H7.92481C6.48518 133.261 5.55103 131.63 5.55103 129.501C5.55103 125.952 8.24433 124.322 11.7114 124.322H16.0577C16.9913 124.322 17.6309 124.059 17.6309 123.218C17.6309 122.745 17.4443 122.246 17.151 121.772L19.3644 121.588C19.7108 122.219 20.0047 123.218 20.0047 124.243C20.0047 126.11 18.9644 127.056 16.6712 127.056H12.1376C9.76506 127.056 8.1114 128.187 8.1114 130.448C8.1114 132.393 9.60469 133.76 11.1248 134.233H19.7376V136.967H5.79128V134.233Z" fill="#15573F"/>
<path fill-rule="evenodd" clip-rule="evenodd" d="M5.79128 134.233H7.92481C6.48518 133.261 5.55103 131.63 5.55103 129.501C5.55103 125.952 8.24433 124.322 11.7114 124.322H16.0577C16.9913 124.322 17.6309 124.059 17.6309 123.218C17.6309 122.745 17.4443 122.246 17.151 121.772L19.3644 121.588C19.7108 122.219 20.0047 123.218 20.0047 124.243C20.0047 126.11 18.9644 127.056 16.6712 127.056H12.1376C9.76506 127.056 8.1114 128.187 8.1114 130.448C8.1114 132.393 9.60469 133.76 11.1248 134.233H19.7376V136.967H5.79128V134.233Z" stroke="#15573F" stroke-width="0.6"/>
<path fill-rule="evenodd" clip-rule="evenodd" d="M2.24531 104.426H5.79104V99.063H7.97762L7.97762 104.426H14.9112C16.7246 104.426 17.5782 103.637 17.5782 102.218C17.5782 101.166 17.0709 99.9305 16.5112 99.1682L18.6709 98.2743C19.4441 99.5097 20.0045 101.14 20.0045 103.032C20.0045 105.583 18.4313 107.16 15.4441 107.16H7.97762V109.737H5.79104V107.16L2.24531 106.844L2.24531 104.426Z" fill="#1A825A"/>
<path fill-rule="evenodd" clip-rule="evenodd" d="M2.24531 104.426H5.79104V99.063H7.97762L7.97762 104.426H14.9112C16.7246 104.426 17.5782 103.637 17.5782 102.218C17.5782 101.166 17.0709 99.9305 16.5112 99.1682L18.6709 98.2743C19.4441 99.5097 20.0045 101.14 20.0045 103.032C20.0045 105.583 18.4313 107.16 15.4441 107.16H7.97762V109.737H5.79104V107.16L2.24531 106.844L2.24531 104.426Z" stroke="#1A825A" stroke-width="0.6"/>
<path fill-rule="evenodd" clip-rule="evenodd" d="M0.804878 90.4427H7.89817C6.43171 89.47 5.55122 87.8397 5.55122 85.7104C5.55122 82.1618 8.24451 80.5314 11.7116 80.5314H16.0579C16.9915 80.5314 17.6311 80.2687 17.6311 79.4271C17.6311 78.954 17.4445 78.5073 17.1512 77.9813L19.364 77.7974C19.711 78.4021 20.0043 79.4013 20.0043 80.4527C20.0043 82.3193 18.964 83.2655 16.6713 83.2655H12.1378C9.76463 83.2655 8.11098 84.3963 8.11098 86.6572C8.11098 88.6026 9.60488 89.9696 11.125 90.4427H19.7378V93.1768H0.804878L0.804878 90.4427Z" fill="#1A825A"/>
<path fill-rule="evenodd" clip-rule="evenodd" d="M0.804878 90.4427H7.89817C6.43171 89.47 5.55122 87.8397 5.55122 85.7104C5.55122 82.1618 8.24451 80.5314 11.7116 80.5314H16.0579C16.9915 80.5314 17.6311 80.2687 17.6311 79.4271C17.6311 78.954 17.4445 78.5073 17.1512 77.9813L19.364 77.7974C19.711 78.4021 20.0043 79.4013 20.0043 80.4527C20.0043 82.3193 18.964 83.2655 16.6713 83.2655H12.1378C9.76463 83.2655 8.11098 84.3963 8.11098 86.6572C8.11098 88.6026 9.60488 89.9696 11.125 90.4427H19.7378V93.1768H0.804878L0.804878 90.4427Z" stroke="#1A825A" stroke-width="0.6"/>
<path fill-rule="evenodd" clip-rule="evenodd" d="M5.79128 60.5813H16.0577C16.9913 60.5813 17.6309 60.3445 17.6309 59.5035C17.6309 59.0039 17.4443 58.5308 17.151 58.0312L19.3645 57.8208C19.7108 58.452 20.0047 59.5035 20.0047 60.5026C20.0047 62.0013 19.3376 62.8952 17.8974 63.2108C19.2577 64.2358 20.0047 65.9184 20.0047 68.0477C20.0047 71.5969 17.5242 73.2002 13.8712 73.2002H5.79128V70.4661H13.4712C16.0309 70.4661 17.4443 69.5728 17.4443 67.075C17.4443 65.1032 16.1913 63.8678 14.9645 63.3154H5.79128V60.5813Z" fill="#1A825A"/>
<path fill-rule="evenodd" clip-rule="evenodd" d="M5.79128 60.5813H16.0577C16.9913 60.5813 17.6309 60.3445 17.6309 59.5035C17.6309 59.0039 17.4443 58.5308 17.151 58.0312L19.3645 57.8208C19.7108 58.452 20.0047 59.5035 20.0047 60.5026C20.0047 62.0013 19.3376 62.8952 17.8974 63.2108C19.2577 64.2358 20.0047 65.9184 20.0047 68.0477C20.0047 71.5969 17.5242 73.2002 13.8712 73.2002H5.79128V70.4661H13.4712C16.0309 70.4661 17.4443 69.5728 17.4443 67.075C17.4443 65.1032 16.1913 63.8678 14.9645 63.3154H5.79128V60.5813Z" stroke="#1A825A" stroke-width="0.6"/>
<path fill-rule="evenodd" clip-rule="evenodd" d="M5.79128 50.0689H7.87116C6.45835 49.1227 5.52482 47.5717 5.52482 45.4683C5.52482 42.9969 6.5114 41.5776 8.43153 40.8941C6.77787 40.026 5.55104 38.3175 5.55104 35.8991C5.55104 32.3498 8.24433 30.8776 11.7114 30.8776H16.0577C16.9913 30.8776 17.6309 30.6149 17.6309 29.7997C17.6309 29.3266 17.4443 28.8271 17.151 28.3275L19.3645 28.1171C19.7108 28.7219 20.0047 29.8262 20.0047 30.7989C20.0047 32.639 18.9645 33.6117 16.6712 33.6117H12.1376C9.76506 33.6117 8.1114 34.6372 8.1114 36.8976C8.1114 38.7906 9.47116 40.0002 10.9913 40.4468H19.7376V43.1809H12.1114C9.73823 43.1809 8.1114 44.18 8.1114 46.4409C8.1114 48.3863 9.49799 49.5958 11.0181 50.0689H19.7376V52.803H5.79128V50.0689Z" fill="#1A825A"/>
<path fill-rule="evenodd" clip-rule="evenodd" d="M5.79128 50.0689H7.87116C6.45835 49.1227 5.52482 47.5717 5.52482 45.4683C5.52482 42.9969 6.5114 41.5776 8.43153 40.8941C6.77787 40.026 5.55104 38.3175 5.55104 35.8991C5.55104 32.3498 8.24433 30.8776 11.7114 30.8776H16.0577C16.9913 30.8776 17.6309 30.6149 17.6309 29.7997C17.6309 29.3266 17.4443 28.8271 17.151 28.3275L19.3645 28.1171C19.7108 28.7219 20.0047 29.8262 20.0047 30.7989C20.0047 32.639 18.9645 33.6117 16.6712 33.6117H12.1376C9.76506 33.6117 8.1114 34.6372 8.1114 36.8976C8.1114 38.7906 9.47116 40.0002 10.9913 40.4468H19.7376V43.1809H12.1114C9.73823 43.1809 8.1114 44.18 8.1114 46.4409C8.1114 48.3863 9.49799 49.5958 11.0181 50.0689H19.7376V52.803H5.79128V50.0689Z" stroke="#1A825A" stroke-width="0.6"/>
<path fill-rule="evenodd" clip-rule="evenodd" d="M7.97787 16.9231C7.97787 18.4482 8.77787 19.8152 9.6047 20.6039H16.0047C16.7779 19.8675 17.5779 18.474 17.5779 16.9231C17.5779 14.189 15.6047 12.4012 12.751 12.4012C9.92421 12.4012 7.97787 14.189 7.97787 16.9231ZM20.0047 16.1873C20.0047 18.159 19.2846 19.6307 18.2443 20.6039H19.7376V23.3374H0.804695L0.804695 20.6039H7.23152C6.24494 19.6048 5.55165 18.0797 5.55165 16.1873C5.55165 12.2437 8.53823 9.58836 12.751 9.58836C16.9645 9.58836 20.0047 12.2437 20.0047 16.1873Z" fill="#1A825A"/>
<path d="M9.6047 20.6039L9.39762 20.821L9.48456 20.9039H9.6047V20.6039ZM16.0047 20.6039V20.9039H16.1247L16.2116 20.8212L16.0047 20.6039ZM18.2443 20.6039L18.0394 20.3849L17.4846 20.9039H18.2443V20.6039ZM19.7376 20.6039H20.0376V20.3039H19.7376V20.6039ZM19.7376 23.3374V23.6374H20.0376V23.3374H19.7376ZM0.804695 23.3374H0.504695V23.6374H0.804695V23.3374ZM0.804695 20.6039V20.3039H0.504695V20.6039H0.804695ZM7.23152 20.6039V20.9039H7.94937L7.44499 20.3932L7.23152 20.6039ZM7.67787 16.9231C7.67787 18.5482 8.52588 19.9895 9.39762 20.821L9.81176 20.3869C9.02985 19.641 8.27787 18.3482 8.27787 16.9231H7.67787ZM9.6047 20.9039H16.0047V20.3039H9.6047V20.9039ZM16.2116 20.8212C17.0336 20.0383 17.8779 18.5698 17.8779 16.9231H17.2779C17.2779 18.3783 16.5222 19.6968 15.7978 20.3867L16.2116 20.8212ZM17.8779 16.9231C17.8779 15.4803 17.3552 14.2675 16.4386 13.4169C15.5242 12.5684 14.2404 12.1012 12.751 12.1012V12.7012C14.1154 12.7012 15.245 13.1278 16.0305 13.8568C16.8139 14.5837 17.2779 15.6318 17.2779 16.9231H17.8779ZM12.751 12.1012C11.2743 12.1012 10.0034 12.569 9.09903 13.4182C8.19284 14.2691 7.67787 15.4816 7.67787 16.9231H8.27787C8.27787 15.6305 8.73607 14.582 9.50975 13.8555C10.2853 13.1273 11.401 12.7012 12.751 12.7012V12.1012ZM19.7047 16.1873C19.7047 18.0807 19.0156 19.4715 18.0394 20.3849L18.4493 20.823C19.5535 19.7899 20.3047 18.2374 20.3047 16.1873H19.7047ZM18.2443 20.9039H19.7376V20.3039H18.2443V20.9039ZM19.4376 20.6039V23.3374H20.0376V20.6039H19.4376ZM19.7376 23.0374H0.804695V23.6374H19.7376V23.0374ZM1.1047 23.3374L1.1047 20.6039H0.504695L0.504695 23.3374H1.1047ZM0.804695 20.9039H7.23152V20.3039H0.804695L0.804695 20.9039ZM7.44499 20.3932C6.51672 19.4531 5.85165 18.005 5.85165 16.1873H5.25165C5.25165 18.1544 5.97316 19.7566 7.01806 20.8147L7.44499 20.3932ZM5.85165 16.1873C5.85165 14.2955 6.56588 12.728 7.77327 11.631C8.9831 10.5318 10.7074 9.88836 12.751 9.88836V9.28836C10.5819 9.28836 8.70647 9.97253 7.36981 11.1869C6.0307 12.4035 5.25165 14.1354 5.25165 16.1873H5.85165ZM12.751 9.88836C14.7952 9.88836 16.5337 10.532 17.7573 11.6321C18.9783 12.7297 19.7047 14.2972 19.7047 16.1873H20.3047C20.3047 14.1337 19.5109 12.4017 18.1585 11.1859C16.8087 9.97239 14.9203 9.28836 12.751 9.28836V9.88836Z" fill="#1A825A"/>
<path fill-rule="evenodd" clip-rule="evenodd" d="M16.3245 2.52021C16.3245 1.33714 16.9916 0.653623 18.1916 0.653623C19.4178 0.653623 20.0574 1.33714 20.0574 2.52021C20.0574 3.70329 19.4178 4.36035 18.1916 4.36035C16.9916 4.36035 16.3245 3.70329 16.3245 2.52021Z" fill="#1A825A"/>
<path fill-rule="evenodd" clip-rule="evenodd" d="M16.3245 2.52021C16.3245 1.33714 16.9916 0.653623 18.1916 0.653623C19.4178 0.653623 20.0574 1.33714 20.0574 2.52021C20.0574 3.70329 19.4178 4.36035 18.1916 4.36035C16.9916 4.36035 16.3245 3.70329 16.3245 2.52021Z" stroke="#1A825A" stroke-width="0.6"/>
</svg>
